<?xml version="1.0" standalone="no"?>
<!DOCTYPE svg PUBLIC "-//W3C//DTD SVG 20010904//EN"
 "http://www.w3.org/TR/2001/REC-SVG-20010904/DTD/svg10.dtd">
<svg version="1.0" xmlns="http://www.w3.org/2000/svg"
 width="395.000000pt" height="394.000000pt" viewBox="0 0 395.000000 394.000000"
 preserveAspectRatio="xMidYMid meet">

<g transform="translate(0.000000,394.000000) scale(0.100000,-0.100000)"
fill="#000000" stroke="none">
<path d="M1745 3918 c-218 -24 -430 -89 -650 -198 -315 -157 -560 -371 -754
-660 -203 -303 -314 -638 -328 -992 -5 -128 -4 -150 11 -173 38 -58 117 -81
174 -51 59 31 64 45 79 213 29 337 108 580 269 826 258 394 628 648 1094 749
92 20 133 22 335 22 200 0 243 -3 332 -22 154 -33 275 -76 418 -146 343 -169
602 -428 771 -771 108 -221 159 -413 173 -656 9 -151 17 -175 74 -209 62 -38
148 -15 182 49 27 54 15 275 -27 471 -125 590 -511 1087 -1049 1354 -338 168
-730 237 -1104 194z"/>
<path d="M1745 3549 c-238 -35 -508 -144 -708 -286 -111 -79 -288 -258 -369
-373 -119 -167 -214 -383 -256 -581 -23 -102 -42 -267 -42 -358 -1 -103 -52
-172 -153 -207 -27 -9 -59 -30 -78 -51 -29 -33 -31 -41 -27 -90 4 -44 11 -60
37 -86 29 -29 37 -32 94 -32 151 1 326 149 376 320 7 22 16 105 21 185 19 298
80 493 227 714 75 113 221 266 323 338 329 233 727 310 1111 213 503 -126 891
-542 986 -1059 13 -66 17 -143 17 -276 -2 -418 -85 -812 -259 -1220 -69 -162
-67 -156 -55 -200 18 -67 91 -110 160 -95 52 11 85 57 148 207 194 459 281
903 269 1380 -4 181 -9 229 -30 318 -35 146 -80 267 -143 390 -231 444 -658
756 -1151 840 -124 21 -381 26 -498 9z"/>
<path d="M1865 3194 c-437 -48 -809 -301 -994 -679 -89 -181 -118 -303 -131
-545 -5 -91 -15 -188 -23 -216 -35 -131 -132 -231 -315 -323 -72 -36 -102 -76
-102 -136 0 -74 61 -135 135 -135 57 0 254 119 353 214 155 146 204 278 221
593 6 93 18 197 27 233 117 450 536 756 994 727 361 -24 667 -232 820 -561 80
-170 104 -356 81 -627 -41 -484 -197 -931 -461 -1328 -58 -85 -104 -165 -107
-184 -12 -75 52 -147 130 -147 61 0 92 24 161 123 295 424 476 906 537 1432
19 169 17 451 -4 558 -50 247 -167 468 -342 642 -173 174 -400 295 -636 340
-85 16 -274 26 -344 19z"/>
<path d="M1810 2815 c-269 -54 -490 -222 -611 -465 -56 -111 -85 -236 -93
-396 -11 -230 -71 -407 -196 -573 -88 -117 -194 -206 -326 -275 -74 -39 -105
-75 -112 -132 -9 -83 47 -147 128 -147 59 0 229 101 360 213 112 97 243 274
301 407 70 160 96 273 109 470 12 178 38 274 100 370 81 123 218 221 360 258
95 25 252 17 342 -18 188 -72 334 -239 384 -437 14 -53 16 -97 11 -235 -19
-573 -249 -1124 -651 -1553 -98 -105 -116 -140 -102 -196 10 -39 55 -85 95
-97 64 -19 98 0 207 114 372 391 621 914 699 1467 23 160 30 397 16 490 -67
431 -440 753 -866 749 -49 -1 -119 -7 -155 -14z"/>
<path d="M1829 2441 c-86 -28 -154 -69 -213 -131 -97 -102 -145 -232 -146
-396 -1 -440 -282 -899 -684 -1115 -88 -47 -116 -82 -116 -144 0 -73 61 -135
132 -135 75 0 307 153 459 301 286 281 456 658 475 1054 7 140 18 185 61 235
84 97 217 113 316 37 39 -29 82 -107 91 -162 10 -60 -11 -294 -40 -435 -61
-306 -183 -573 -380 -835 -96 -128 -189 -225 -331 -348 -80 -68 -104 -95 -112
-124 -28 -99 62 -191 158 -163 47 13 129 77 255 200 207 200 362 411 481 655
82 169 125 287 169 465 64 259 86 567 50 691 -50 171 -181 305 -343 353 -73
21 -210 20 -282 -3z"/>
<path d="M1920 2083 c-57 -29 -80 -74 -80 -154 0 -97 -26 -280 -55 -394 -50
-192 -121 -349 -234 -516 -135 -200 -276 -340 -479 -475 -127 -85 -147 -112
-139 -181 9 -79 87 -135 161 -115 90 25 300 187 466 359 332 343 517 772 545
1263 5 100 4 119 -12 149 -36 69 -110 96 -173 64z"/>
</g>
</svg>
