<?xml version="1.0" encoding="UTF-8"?>
<svg version="1.1" xmlns="http://www.w3.org/2000/svg" width="512" height="512">
<path d="M0 0 C0.7701796 0.3593161 1.54035919 0.7186322 2.33387756 1.08883667 C3.95553864 1.84905928 5.57493201 2.61413611 7.19213867 3.38378906 C9.64208214 4.54611262 12.10238725 5.68393653 14.56445312 6.8203125 C31.83161663 14.90692158 31.83161663 14.90692158 37.66015625 23.1796875 C39.21542855 27.936991 41.05700257 34.76099485 38.72265625 39.4296875 C45.81515271 40.52151269 52.80418729 40.62107127 59.97265625 40.6171875 C61.20741699 40.61783203 62.44217773 40.61847656 63.71435547 40.61914062 C71.92780953 40.57228571 80.00312465 40.16056338 88.15332031 39.14135742 C98.60869129 37.83965214 110.92047726 36.95607443 120.328125 42.40234375 C124.13646103 44.60060711 127.42545773 46.33665649 131.72265625 47.4296875 C135.8939169 46.0611982 138.94226732 44.16131573 142.49609375 41.65234375 C160.4734146 29.26845082 189.62810003 35.4620215 209.84765625 37.9296875 C231.23777788 40.51842209 250.77899355 42.50224155 271.72265625 36.4296875 C274.38482732 35.74345953 277.05289238 35.08604141 279.72265625 34.4296875 C279.78453125 33.2746875 279.84640625 32.1196875 279.91015625 30.9296875 C280.77296693 24.15902037 284.40471732 19.06040929 289.66821289 14.81518555 C294.4046152 11.62099861 299.68905926 9.35164317 304.84765625 6.9296875 C306.58789062 6.09630859 306.58789062 6.09630859 308.36328125 5.24609375 C311.80340134 3.61068991 315.25835165 2.01314226 318.72265625 0.4296875 C319.8219043 -0.08335937 320.92115234 -0.59640625 322.05371094 -1.125 C323.09688477 -1.59164062 324.14005859 -2.05828125 325.21484375 -2.5390625 C326.13378418 -2.95607422 327.05272461 -3.37308594 327.99951172 -3.80273438 C331.31053902 -4.73602018 333.42166704 -4.46927596 336.72265625 -3.5703125 C339.5409741 -0.97449342 340.57829663 0.65976955 341.28515625 4.4296875 C340.52087618 8.50584787 338.82557613 9.71596861 335.72265625 12.4296875 C333.37044333 13.77445201 331.11069609 14.96251186 328.6640625 16.09375 C327.66390358 16.57187637 327.66390358 16.57187637 326.64353943 17.05966187 C324.52866643 18.06802549 322.40724981 19.06162403 320.28515625 20.0546875 C318.86476522 20.7281781 317.44483853 21.40264893 316.02539062 22.078125 C313.40983522 23.32208746 310.79131601 24.5593814 308.17016602 25.79150391 C307.03248779 26.33210449 305.89480957 26.87270508 304.72265625 27.4296875 C303.6049585 27.89165527 302.48726074 28.35362305 301.33569336 28.82958984 C298.55999585 30.18322285 298.55999585 30.18322285 297.71337891 32.78295898 C297.72465817 36.00081489 298.47580166 37.87807849 299.87109375 40.77734375 C300.37310303 41.83872559 300.8751123 42.90010742 301.39233398 43.99365234 C301.95509033 45.14816895 302.51784668 46.30268555 303.09765625 47.4921875 C303.68632278 48.72543284 304.27360942 49.95933765 304.85961914 51.19384766 C306.12859424 53.86221238 307.40511782 56.526783 308.68701172 59.18896484 C310.7731038 63.52636036 312.83088015 67.87682764 314.8828125 72.23046875 C315.23266205 72.97265152 315.5825116 73.71483429 315.94296265 74.47950745 C316.65596962 75.99227871 317.36891078 77.50508099 318.08178711 79.01791382 C319.52725557 82.0831529 320.97625921 85.14671536 322.42514038 88.21034241 C326.67117359 97.18994206 330.89590887 106.17928261 335.09765625 115.1796875 C335.38184418 115.78798401 335.6660321 116.39628052 335.95883179 117.02301025 C338.99255359 123.51934848 342.0013495 130.02599257 344.96484375 136.5546875 C345.47354004 137.67391602 345.98223633 138.79314453 346.50634766 139.94628906 C347.45821047 142.0452686 348.40604269 144.14608239 349.34912109 146.24902344 C349.97488037 147.63009277 349.97488037 147.63009277 350.61328125 149.0390625 C351.1551709 150.2451416 351.1551709 150.2451416 351.70800781 151.47558594 C352.68040249 153.58856819 352.68040249 153.58856819 354.72265625 155.4296875 C360.20167953 155.96445088 363.69994185 154.8770362 368.57421875 152.4375 C369.5071022 151.97849808 369.5071022 151.97849808 370.45883179 151.51022339 C372.42846704 150.53788512 374.38804515 149.54704847 376.34765625 148.5546875 C378.31630834 147.57373905 380.28684254 146.59667161 382.25790405 145.62057495 C384.04308893 144.73399934 385.82368303 143.83819747 387.60400391 142.94189453 C393.43169835 140.11609686 397.26301881 138.81448393 403.72265625 139.4296875 C406.17693452 141.19173344 407.28819114 142.58972162 408.66015625 145.2421875 C408.75907437 148.70432181 407.5369693 151.55000632 405.72265625 154.4296875 C403.4012636 156.04610759 401.53422229 157.13207537 399 158.25390625 C398.33988419 158.5674556 397.67976837 158.88100494 396.99964905 159.20405579 C394.89582163 160.19669792 392.77885932 161.15677643 390.66015625 162.1171875 C389.26402321 162.77206546 387.86882968 163.4289503 386.47460938 164.08789062 C382.57846999 165.91818562 378.65712733 167.68325338 374.72265625 169.4296875 C373.74361328 169.86958008 372.76457031 170.30947266 371.75585938 170.76269531 C366.81390837 172.88040588 362.81324957 173.93979205 357.34765625 173.8046875 C355.60355469 173.78535156 355.60355469 173.78535156 353.82421875 173.765625 C350.72265625 173.4296875 350.72265625 173.4296875 348.55859375 172.34375 C346.1437686 171.14147535 345.25376821 171.6173975 342.72265625 172.4296875 C341.46063317 173.04152674 340.21964696 173.69815783 339 174.390625 C338.30124756 174.77871338 337.60249512 175.16680176 336.88256836 175.56665039 C336.14917236 175.97520264 335.41577637 176.38375488 334.66015625 176.8046875 C328.1852906 180.33863935 322.0294709 183.05670073 314.72265625 184.4296875 C315.05265625 185.3784375 315.38265625 186.3271875 315.72265625 187.3046875 C318.17989569 196.17211677 316.86076603 204.27553608 312.72265625 212.4296875 C308.65476436 218.48518227 302.91253163 224.11256004 295.66015625 225.953125 C293.72265625 226.2421875 293.72265625 226.2421875 290.72265625 226.4296875 C290.7690625 227.16832031 290.81546875 227.90695312 290.86328125 228.66796875 C291.19083544 237.87458104 289.80943911 245.92099771 283.97265625 253.3046875 C277.82028753 259.71853189 271.43845233 262.23305156 262.72265625 263.4296875 C262.7690625 264.10773438 262.81546875 264.78578125 262.86328125 265.484375 C263.21712599 274.60851424 261.30909629 281.53200079 255.59765625 288.7421875 C250.29746695 294.39724909 242.81220205 298.1785343 235.03125 298.5625 C234.08378906 298.55992187 233.13632812 298.55734375 232.16015625 298.5546875 C230.73509766 298.55855469 230.73509766 298.55855469 229.28125 298.5625 C226.72265625 298.4296875 226.72265625 298.4296875 223.72265625 297.4296875 C223.71878906 298.33847656 223.71878906 298.33847656 223.71484375 299.265625 C223.3413435 307.35813041 220.68890901 313.61598293 214.79296875 319.28515625 C208.41426626 324.31117669 202.03884733 326.95466624 193.84765625 326.8671875 C191.87152344 326.89619141 191.87152344 326.89619141 189.85546875 326.92578125 C182.95290818 326.44269269 177.29005287 322.84660004 171.53125 319.2734375 C170.64888672 318.726875 169.76652344 318.1803125 168.85742188 317.6171875 C167.04226816 316.48156635 165.24020076 315.32478526 163.45117188 314.1484375 C158.7627335 311.06923927 158.7627335 311.06923927 153.43017578 310.9453125 C151.31951353 311.96866808 151.31951353 311.96866808 149.49633789 313.26367188 C144.40503475 316.61068685 137.53569196 315.93142918 131.72265625 315.4296875 C124.61928068 313.76185109 119.10335109 310.31896599 114.72265625 304.4296875 C114.72265625 303.7696875 114.72265625 303.1096875 114.72265625 302.4296875 C113.83513672 302.84541016 113.83513672 302.84541016 112.9296875 303.26953125 C104.12622683 307.30504911 96.64668105 308.92151133 87.22265625 305.8671875 C80.07660861 303.04246686 74.8029249 298.99080431 71.22265625 292.1171875 C69.72265625 288.4296875 69.72265625 288.4296875 69.72265625 286.4296875 C68.81386719 286.59017578 68.81386719 286.59017578 67.88671875 286.75390625 C59.77801538 287.91407458 53.6625618 286.5511751 46.47265625 282.6796875 C41.97636516 279.00090388 38.00008719 274.84395728 35.72265625 269.4296875 C35.72265625 268.4396875 35.72265625 267.4496875 35.72265625 266.4296875 C35.12839844 266.53667969 34.53414063 266.64367187 33.921875 266.75390625 C25.67338298 267.94692298 18.04867108 266.83308457 10.91015625 262.3046875 C4.54846973 257.21227978 0.98127098 250.3589603 -0.27734375 242.4296875 C-1.04376706 234.63771715 1.1058378 227.40604841 5.421875 220.84765625 C6.95211461 218.59983338 6.95211461 218.59983338 6.39477539 216.5456543 C5.71449997 214.40400989 5.01566984 212.27594058 4.26953125 210.15625 C3.98247314 209.33777588 3.69541504 208.51930176 3.3996582 207.67602539 C3.09374756 206.81098389 2.78783691 205.94594238 2.47265625 205.0546875 C2.1583667 204.16579834 1.84407715 203.27690918 1.52026367 202.36108398 C0.88473857 200.56369652 0.2489178 198.76641358 -0.38720703 196.96923828 C-1.17906238 194.71008322 -1.95065597 192.4457101 -2.7109375 190.17578125 C-3.12472656 188.96019531 -3.53851563 187.74460937 -3.96484375 186.4921875 C-4.31933594 185.43128906 -4.67382812 184.37039063 -5.0390625 183.27734375 C-7.2941033 178.09146127 -10.69311651 174.78768362 -15.21484375 171.4921875 C-16.04886719 170.86441406 -16.88289063 170.23664063 -17.7421875 169.58984375 C-20.20880357 168.14041056 -20.20880357 168.14041056 -22.71875 169.05078125 C-24.5465959 170.03586461 -26.3732923 171.0230821 -28.19921875 172.01171875 C-34.23043693 174.79005911 -40.98839976 174.74016955 -47.31005859 172.80859375 C-51.89602847 171.07143484 -56.27311463 168.91442311 -60.65576172 166.72265625 C-63.57205699 165.28433443 -66.5161241 163.91680924 -69.46875 162.5546875 C-71.57204746 161.57645102 -73.6749172 160.59729434 -75.77734375 159.6171875 C-77.2921936 158.91565552 -77.2921936 158.91565552 -78.83764648 158.19995117 C-80.24639038 157.53056519 -80.24639038 157.53056519 -81.68359375 156.84765625 C-82.52212891 156.45344482 -83.36066406 156.0592334 -84.22460938 155.65307617 C-86.27734375 154.4296875 -86.27734375 154.4296875 -88.27734375 151.4296875 C-88.934878 144.52557791 -88.934878 144.52557791 -86.77734375 140.9296875 C-83.31722237 138.85361467 -80.17774775 138.95795194 -76.27734375 139.4296875 C-73.4379672 140.31103935 -70.85169431 141.56095581 -68.19921875 142.89453125 C-67.4653595 143.2472963 -66.73150024 143.60006134 -65.97540283 143.96351624 C-63.65201525 145.08358285 -61.33959385 146.22433183 -59.02734375 147.3671875 C-56.69898472 148.50223845 -54.36856568 149.63286079 -52.03643799 150.76014709 C-50.59137477 151.46032199 -49.14881869 152.16570164 -47.70916748 152.87693787 C-43.15072484 155.12190333 -43.15072484 155.12190333 -38.27734375 156.4296875 C-34.00934756 154.57805613 -32.42712116 152.53878799 -30.578125 148.34765625 C-30.10076904 147.29046387 -29.62341309 146.23327148 -29.1315918 145.14404297 C-28.62281494 143.98018066 -28.11403809 142.81631836 -27.58984375 141.6171875 C-26.74166122 139.72634835 -25.88763219 137.83821437 -25.03346252 135.95007324 C-24.42194 134.59740164 -23.81215258 133.2439445 -23.20396423 131.88977051 C-19.78034294 124.27842061 -16.19650024 116.74447092 -12.60916138 109.20925903 C-10.68824371 105.17280636 -8.77424776 101.13307287 -6.859375 97.09375 C-6.47895554 96.29161575 -6.09853607 95.48948151 -5.70658875 94.66304016 C0.24337114 82.11679255 6.18156102 69.5652382 12.05908203 56.98486328 C13.10265805 54.75466752 14.14994189 52.52619899 15.20263672 50.30029297 C16.40991625 47.74508429 17.60084705 45.18310043 18.78515625 42.6171875 C19.11402832 41.93043945 19.44290039 41.24369141 19.78173828 40.53613281 C20.99423984 37.86348164 21.71472427 35.65083124 21.8203125 32.70703125 C20.16912749 29.28126306 17.41679432 28.28665389 14.09765625 26.8046875 C13.40776611 26.47694336 12.71787598 26.14919922 12.00708008 25.81152344 C9.58727576 24.66553616 7.15577943 23.54710847 4.72265625 22.4296875 C1.65141367 21.00720659 -1.41671852 19.57875462 -4.47998047 18.13916016 C-6.52980071 17.17717041 -8.58475655 16.22603779 -10.64501953 15.28662109 C-12.06596924 14.62267334 -12.06596924 14.62267334 -13.515625 13.9453125 C-14.36165283 13.55633789 -15.20768066 13.16736328 -16.0793457 12.76660156 C-18.55134585 11.263028 -19.79069413 9.89981303 -21.27734375 7.4296875 C-21.68121739 3.55250058 -21.57731275 0.6496441 -19.27734375 -2.5703125 C-13.48408207 -7.07618269 -5.75765118 -2.73309284 0 0 Z M279.1796875 51.609375 C278.27025391 51.87878906 277.36082031 52.14820313 276.42382812 52.42578125 C275.47056641 52.71582031 274.51730469 53.00585938 273.53515625 53.3046875 C251.90048943 59.84435904 230.7129624 57.63207914 208.59765625 54.9296875 C190.96310689 52.71768361 190.96310689 52.71768361 173.22265625 51.9296875 C172.39620605 51.92388672 171.56975586 51.91808594 170.71826172 51.91210938 C158.24981234 52.1723567 148.46236823 56.76945726 138.03515625 63.1796875 C136.77391414 63.94203035 135.51193803 64.70316003 134.24926758 65.46313477 C132.31458729 66.62881584 130.38118169 67.796339 128.45176697 68.97071838 C124.19186577 71.56188201 119.89206828 74.06942596 115.55859375 76.53515625 C114.43670654 77.18194336 113.31481934 77.82873047 112.15893555 78.49511719 C110.06158487 79.7036905 107.95671385 80.89934846 105.84301758 82.07910156 C98.84106998 86.17485937 94.35994426 90.80823456 89.72265625 97.4296875 C89.20550049 98.15067627 88.68834473 98.87166504 88.15551758 99.61450195 C86.75467436 101.59822096 85.38913681 103.60126089 84.03515625 105.6171875 C83.13604996 106.94443964 82.23631475 108.27126597 81.3359375 109.59765625 C80.90619629 110.23380859 80.47645508 110.86996094 80.03369141 111.52539062 C78.70776955 113.45131063 77.33495658 115.33658258 75.953125 117.22265625 C73.63164091 120.56055194 72.72265625 122.38416325 72.72265625 126.4296875 C74.3756192 130.17060365 76.33084468 132.21922503 79.72265625 134.4296875 C85.12365157 136.09736325 89.77570118 135.82032972 94.91015625 133.4921875 C101.39757354 129.77072332 105.23278301 124.61962571 109.3984375 118.53125 C115.53392351 109.71009535 119.96879182 104.36255962 130.72265625 101.4296875 C132.14430314 100.83733463 133.56166634 100.23449559 134.97265625 99.6171875 C139.43709027 98.20345006 142.07653794 97.82036051 146.72265625 98.4296875 C148.51187215 100.04312078 150.09651359 101.66192081 151.72265625 103.4296875 C153.00388486 104.75381172 154.28940805 106.07378776 155.578125 107.390625 C156.27752197 108.10613525 156.97691895 108.82164551 157.69750977 109.55883789 C171.98461542 124.06033683 187.62855329 134.70441533 207.72265625 139.4296875 C208.46555908 139.61281494 209.20846191 139.79594238 209.97387695 139.98461914 C215.55698992 141.20020819 220.84191531 141.50974217 226.5390625 141.31640625 C248.56989721 140.6607598 261.39053539 144.4497661 279.72265625 157.4296875 C282.62804594 159.39504212 285.54800549 161.32955572 288.49658203 163.22949219 C290.25467927 164.366288 291.99235377 165.5356282 293.70263672 166.74316406 C297.97789215 169.57449414 300.69463485 170.88382372 305.84375 169.94140625 C307.48299716 169.4813533 309.11112579 168.97900485 310.72265625 168.4296875 C311.73706787 168.10689819 311.73706787 168.10689819 312.77197266 167.77758789 C320.75671366 165.05659422 327.95123475 161.46505558 334.72265625 156.4296875 C329.95632142 145.36554585 324.95904301 134.43354844 319.78515625 123.5546875 C318.66699293 121.19652805 317.54967337 118.83796988 316.43234253 116.47941589 C315.66937933 114.86910389 314.90613411 113.25892548 314.14260864 111.64888 C310.4930799 103.95209941 306.86596013 96.24485849 303.24246216 88.53579712 C302.23347594 86.39019549 301.2232831 84.24516648 300.21264648 82.1003418 C297.39165425 76.11253728 294.57576162 70.12287904 291.79296875 64.1171875 C291.37080078 63.21105713 290.94863281 62.30492676 290.51367188 61.37133789 C289.76502744 59.76353932 289.02111837 58.1535225 288.28320312 56.54077148 C285.77594176 51.17454279 284.9153341 49.86912704 279.1796875 51.609375 Z M31.72265625 55.4296875 C8.8727495 103.26678636 8.8727495 103.26678636 -13.27734375 151.4296875 C-10.15574962 154.82537282 -6.79188523 157.0976578 -2.90234375 159.5546875 C7.80038609 166.72498195 10.83526989 176.56075255 14.72265625 188.4296875 C15.04492188 189.38488281 15.3671875 190.34007812 15.69921875 191.32421875 C16.38392998 193.35595536 17.0552082 195.3922145 17.72265625 197.4296875 C21.47537354 196.17878174 21.65935286 195.14977168 23.47265625 191.7421875 C27.31373808 185.11963262 31.94344233 180.30372573 39.36328125 177.90234375 C48.07459217 176.15719703 57.10975317 176.57094048 64.72265625 181.4296875 C69.91552449 186.01997035 73.49211585 190.87747508 75.72265625 197.4296875 C76.54507813 197.38328125 77.3675 197.336875 78.21484375 197.2890625 C87.27895959 196.9959964 94.3216718 197.90889994 101.53515625 203.6796875 C104.25278046 207.09612937 106.49059299 210.68608667 108.72265625 214.4296875 C109.38265625 215.4196875 110.04265625 216.4096875 110.72265625 217.4296875 C113.28571091 217.64237095 113.28571091 217.64237095 116.22265625 217.3671875 C124.11983866 217.17780663 131.34818197 219.31694787 137.33984375 224.7265625 C140.4401803 228.54505611 142.55379938 233.03813689 144.72265625 237.4296875 C145.47289062 237.38328125 146.223125 237.336875 146.99609375 237.2890625 C156.89097791 236.94012452 164.86554817 238.85315311 172.25390625 245.71875 C177.45876671 251.78185872 179.11791301 258.846222 178.9921875 266.6640625 C178.10034946 275.81509627 173.25705814 283.16072384 168.234375 290.58203125 C166.51242628 293.19591568 166.51242628 293.19591568 166.91430664 295.46679688 C167.9257545 297.92286475 168.82161282 298.44736375 171.14453125 299.68359375 C171.840625 300.06322266 172.53671875 300.44285156 173.25390625 300.83398438 C173.98609375 301.21619141 174.71828125 301.59839844 175.47265625 301.9921875 C176.90520026 302.76385464 178.33749756 303.53597999 179.76953125 304.30859375 C180.79614868 304.85108765 180.79614868 304.85108765 181.84350586 305.40454102 C183.41992255 306.264535 184.94781084 307.21266789 186.4609375 308.1796875 C190.16840832 310.22872146 193.60608892 310.08311089 197.72265625 309.4296875 C202.10676381 307.23763372 204.85358282 304.99853367 206.72265625 300.4296875 C207.28504128 296.58672315 207.10841873 293.442314 205.72265625 289.8046875 C200.69863845 283.83866636 193.60692288 280.00435934 187.04296875 275.9453125 C184.72265625 274.4296875 184.72265625 274.4296875 182.72265625 272.4296875 C182.52551455 268.28971183 182.41500147 265.35265183 183.72265625 261.4296875 C193.49662005 260.17115894 199.30208398 263.35624456 207.34765625 268.6171875 C209.48499247 269.96592926 211.62300165 271.31360525 213.76171875 272.66015625 C214.77355225 273.30460693 215.78538574 273.94905762 216.82788086 274.61303711 C225.57959132 280.579294 225.57959132 280.579294 235.72265625 281.4296875 C240.34128412 278.85391426 244.02905888 276.5104796 245.72265625 271.4296875 C246.26506096 265.78867855 245.28876656 261.82021794 241.72265625 257.4296875 C238.80204128 255.13302374 235.65343336 253.35630578 232.41015625 251.5546875 C231.52602051 251.04292969 230.64188477 250.53117188 229.73095703 250.00390625 C227.06974071 248.46428822 224.39741082 246.94563291 221.72265625 245.4296875 C218.83829868 243.77859635 215.96553045 242.10919235 213.09765625 240.4296875 C212.16699341 239.90592529 212.16699341 239.90592529 211.2175293 239.37158203 C207.98892325 237.48780877 205.81075777 236.10021663 204.72265625 232.4296875 C205.16710069 225.98524306 205.16710069 225.98524306 207.72265625 223.4296875 C212.49650562 222.09121329 214.97137741 222.56233445 219.29296875 224.88671875 C220.33614258 225.44439941 221.37931641 226.00208008 222.45410156 226.57666016 C227.89540088 229.66147206 233.26269146 232.85226655 238.59765625 236.1171875 C240.76047524 237.43563581 242.92449874 238.75211065 245.08984375 240.06640625 C246.49919189 240.92818481 246.49919189 240.92818481 247.93701172 241.80737305 C255.33036938 246.11391138 255.33036938 246.11391138 263.72265625 246.4296875 C267.53687859 244.37587547 270.7227606 242.32422113 272.72265625 238.4296875 C273.96339612 233.72746322 274.27197742 230.54945759 272.09765625 226.1171875 C268.15666649 221.65764646 263.65332579 218.67076483 258.5390625 215.6796875 C257.96107407 215.33969727 257.38308563 214.99970703 256.7875824 214.64941406 C254.95558829 213.57245945 253.1206021 212.50074688 251.28515625 211.4296875 C249.45373983 210.3578748 247.62302507 209.28489993 245.79344177 208.20996094 C244.13137745 207.2339002 242.46723749 206.26137646 240.80297852 205.2890625 C231.9935156 199.9714062 231.9935156 199.9714062 230.72265625 197.4296875 C230.18506784 193.39777445 230.41505665 191.8677839 232.78515625 188.4921875 C235.72265625 186.4296875 235.72265625 186.4296875 239.03442383 186.60498047 C242.80027295 187.44704298 245.36560529 188.60280461 248.671875 190.5625 C249.76822266 191.20445312 250.86457031 191.84640625 251.99414062 192.5078125 C253.12142578 193.18328125 254.24871094 193.85875 255.41015625 194.5546875 C256.51810547 195.20695313 257.62605469 195.85921875 258.76757812 196.53125 C263.21924963 199.15385952 267.65933182 201.79570858 272.09716797 204.44165039 C273.16080566 205.07063232 274.22444336 205.69961426 275.3203125 206.34765625 C276.74549194 207.19493286 276.74549194 207.19493286 278.19946289 208.05932617 C282.2396443 210.25357274 285.29562326 211.10207235 289.78125 209.859375 C293.76323583 208.23735508 296.16126849 206.38159546 298.28515625 202.6171875 C299.97374458 198.52822921 300.12448079 195.71304025 298.72265625 191.4296875 C293.6346056 184.04613976 286.42756776 180.33548927 278.78515625 176.0546875 C276.13589104 174.56103312 273.48904885 173.0631667 270.84375 171.5625 C270.204375 171.20154236 269.565 170.84058472 268.90625 170.46868896 C265.63729387 168.60302816 262.53879804 166.67373383 259.5703125 164.359375 C249.28124791 156.44819401 237.53249134 157.54338837 225.15625 157.51171875 C194.94624328 157.40977272 168.16218436 143.93441733 147.03515625 122.9296875 C145.59176626 121.43535434 144.15330406 119.93622429 142.72265625 118.4296875 C141.72596201 117.42639263 140.72742944 116.42489142 139.72265625 115.4296875 C130.88519979 117.85636612 126.88726856 122.06251995 121.72265625 129.4296875 C113.40162008 140.80551848 105.04990509 148.99632936 90.72265625 151.4296875 C82.17069157 152.26874819 73.52298456 150.66931686 66.34765625 145.8046875 C60.8733877 141.29712757 57.82968005 135.3737459 56.72265625 128.4296875 C55.91381696 117.91477669 60.45037405 110.7102054 66.34472656 102.38330078 C67.9730868 100.07462987 69.57813475 97.75043367 71.18359375 95.42578125 C72.42507316 93.63492559 73.66726394 91.84456287 74.91015625 90.0546875 C75.50417236 89.19834717 76.09818848 88.34200684 76.71020508 87.4597168 C78.36060009 85.10098584 80.03680495 82.76314918 81.72265625 80.4296875 C82.47160156 79.36878906 83.22054687 78.30789062 83.9921875 77.21484375 C87.88141802 73.24771734 92.36690545 70.87711692 97.22265625 68.2421875 C99.08735587 67.20724074 100.95194284 66.17209098 102.81640625 65.13671875 C103.63818359 64.6878833 104.45996094 64.23904785 105.30664062 63.77661133 C106.10392578 63.33212646 106.90121094 62.8876416 107.72265625 62.4296875 C108.64884766 61.92010498 109.57503906 61.41052246 110.52929688 60.88549805 C111.25310547 60.40508057 111.97691406 59.92466309 112.72265625 59.4296875 C112.72265625 58.7696875 112.72265625 58.1096875 112.72265625 57.4296875 C104.57875727 55.01668039 97.5822652 55.02496297 89.17236328 56.15039062 C79.77644454 57.37827857 70.4389755 57.65476831 60.97265625 57.6796875 C59.68270752 57.68871094 58.39275879 57.69773438 57.0637207 57.70703125 C48.4238101 57.68056398 40.23587296 56.87433463 31.72265625 55.4296875 Z M39.72265625 196.4296875 C37.594795 199.28817267 37.594795 199.28817267 35.7265625 202.6796875 C35.37053452 203.29303955 35.01450653 203.9063916 34.64768982 204.53833008 C33.5153292 206.4957408 32.40024437 208.4623966 31.28515625 210.4296875 C30.54080164 211.72068006 29.7953678 213.01105101 29.04882812 214.30078125 C27.25045966 217.4163618 25.47469646 220.54398903 23.71069336 223.67913818 C22.76661611 225.35180186 21.81130819 227.01811187 20.85546875 228.68408203 C20.03369141 230.13983643 20.03369141 230.13983643 19.1953125 231.625 C18.71715088 232.46562988 18.23898926 233.30625977 17.74633789 234.17236328 C16.171713 237.64457453 16.45033049 239.89544928 17.72265625 243.4296875 C20.13271032 247.30298868 22.24704139 249.36406492 26.72265625 250.4296875 C32.02298868 250.31691447 35.08391604 248.0626178 38.72265625 244.4296875 C40.8560676 241.4465238 40.8560676 241.4465238 42.6328125 238.1328125 C43.1349955 237.24320831 43.1349955 237.24320831 43.64732361 236.33563232 C44.70468014 234.45644265 45.74510057 232.56849641 46.78515625 230.6796875 C47.48522385 229.42906871 48.18638814 228.17906317 48.88867188 226.9296875 C50.23744454 224.52594897 51.57737121 222.11765762 52.90893555 219.7043457 C54.03126537 217.67798819 55.16359004 215.65708805 56.31176758 213.64526367 C56.76447021 212.85095947 57.21717285 212.05665527 57.68359375 211.23828125 C58.06950684 210.56853271 58.45541992 209.89878418 58.85302734 209.20874023 C60.22436126 206.40331906 60.33100856 204.47144906 59.72265625 201.4296875 C58.0883022 198.39445855 56.66710325 196.14616453 53.91015625 194.0546875 C48.35947791 192.4687794 44.31559771 193.02902058 39.72265625 196.4296875 Z M70.93457031 221.1171875 C68.96823834 224.41873391 67.0832548 227.75495436 65.22265625 231.1171875 C63.94215161 233.39234675 62.6609115 235.66709223 61.37890625 237.94140625 C60.76716553 239.03799561 60.1554248 240.13458496 59.52514648 241.2644043 C57.39464106 245.00570226 55.13879527 248.65780495 52.82641602 252.2890625 C50.94735695 255.93329826 51.10694317 258.39334622 51.72265625 262.4296875 C53.12391075 265.93282376 54.35197404 267.17694963 57.47265625 269.3046875 C61.61489082 270.73853793 63.54184576 270.823291 67.72265625 269.4296875 C73.38988958 264.31482903 77.0967831 257.8028609 80.72265625 251.1796875 C81.75818865 249.31589149 82.79464208 247.45260691 83.83203125 245.58984375 C84.32509766 244.70055176 84.81816406 243.81125977 85.32617188 242.89501953 C86.52081526 240.78601448 87.7559166 238.72407378 89.05078125 236.67578125 C93.86249883 229.09311369 93.86249883 229.09311369 93.72265625 220.4296875 C91.92306132 217.42817333 89.90753696 215.02212785 86.72265625 213.4296875 C78.96963972 212.65438585 75.29536919 214.56289011 70.93457031 221.1171875 Z M107.72265625 237.4296875 C105.47529721 240.40557891 105.47529721 240.40557891 103.59375 243.84765625 C103.23676529 244.4643367 102.87978058 245.08101715 102.51197815 245.71638489 C101.3816273 247.67614933 100.27078894 249.64619533 99.16015625 251.6171875 C98.4120601 252.9206417 97.66272067 254.22338318 96.91210938 255.52539062 C95.47362084 258.02651134 94.04623377 260.53336609 92.63037109 263.04736328 C91.46450241 265.11441533 90.28987766 267.17659849 89.10009766 269.22998047 C88.64683105 270.01904785 88.19356445 270.80811523 87.7265625 271.62109375 C87.34443604 272.27924072 86.96230957 272.9373877 86.56860352 273.61547852 C85.13906158 276.68125806 85.21679898 279.14161524 85.72265625 282.4296875 C87.13666239 285.88614696 88.38038016 287.19631744 91.47265625 289.3046875 C95.46060975 290.68513294 97.66418019 290.53654461 101.72265625 289.4296875 C105.92946646 286.59473535 108.08542803 283.6009553 110.53515625 279.1953125 C110.87135986 278.59845642 111.20756348 278.00160034 111.55395508 277.38665771 C112.62006062 275.48966065 113.67179291 273.5851628 114.72265625 271.6796875 C115.77391877 269.7947651 116.82812943 267.91152442 117.88339233 266.02883911 C118.56327185 264.81475555 119.24105782 263.59949704 119.91665649 262.38302612 C121.73549509 259.12185052 123.63742697 255.95099131 125.68359375 252.828125 C128.22409968 248.59394846 128.86078122 245.2489354 127.72265625 240.4296875 C125.98115149 237.36924898 123.9222169 235.02946783 120.72265625 233.4296875 C114.93035572 232.87273553 112.2586942 233.85689378 107.72265625 237.4296875 Z M140.72265625 259.4296875 C138.18316722 262.89773538 136.00583017 266.5278303 133.84765625 270.2421875 C133.26757812 271.18900391 132.6875 272.13582031 132.08984375 273.11132812 C128.82201487 278.65823859 126.16550131 283.83148948 126.72265625 290.4296875 C128.31461576 293.67256799 129.66870434 295.63013778 132.53515625 297.8046875 C135.89208035 298.76380867 138.23342773 298.90280323 141.72265625 298.4296875 C149.35048817 293.9094908 152.70306611 285.89962277 156.7109375 278.29443359 C157.98804552 275.94053613 159.42336431 273.6966855 160.84765625 271.4296875 C162.43439226 268.54270948 163.04344915 266.48369274 162.84765625 263.1796875 C161.57405264 258.93434214 160.14395116 257.18341267 156.72265625 254.4296875 C149.82079706 250.97875791 145.30941786 254.50285313 140.72265625 259.4296875 Z " fill="#075E00" transform="translate(96.27734375,174.5703125)"/>
<path d="M0 0 C3.62474644 1.03186212 6.28263543 3.29224241 9.26171875 5.5390625 C23.8490061 16.029242 41.28413072 21.6748538 59.12109375 22.9921875 C60.4654248 23.1001062 60.4654248 23.1001062 61.83691406 23.21020508 C63.63549 23.34908692 65.43584839 23.46684012 67.23730469 23.5612793 C71.22560588 23.86560905 73.49690227 24.11044097 76.7109375 26.6015625 C78.70616463 30.7991715 78.69639851 34.32756833 78.578125 38.921875 C78.56418701 39.83904297 78.55024902 40.75621094 78.53588867 41.70117188 C77.37440177 86.58677648 62.90817113 129.35734361 29.953125 160.671875 C21.60542027 168.10636659 9.78068283 177.68712164 -1.640625 178.90625 C-5.67389242 178.53424961 -8.81079282 177.12566946 -12.359375 175.296875 C-13.40387817 174.76380737 -13.40387817 174.76380737 -14.46948242 174.2199707 C-43.89498783 158.60405231 -63.11735229 129.08848603 -73.10986328 98.05712891 C-78.98423173 78.87262792 -81.99207096 58.97903793 -82.296875 38.921875 C-82.31919189 38.05498047 -82.34150879 37.18808594 -82.36450195 36.29492188 C-82.35097713 32.63079146 -82.03460714 30.02514318 -80.6015625 26.625 C-76.07436943 23.29731963 -71.03187535 23.457422 -65.546875 23.046875 C-45.01866449 21.09301566 -25.52913308 15.81512807 -9.109375 2.671875 C-5.92785479 0.65283333 -3.80102783 -0.26113932 0 0 Z M-8.546875 23.234375 C-25.67229619 34.08793872 -45.03817516 37.97718347 -64.859375 40.609375 C-65.49698827 75.39472131 -54.43411887 111.00506224 -31.859375 137.609375 C-31.29605469 138.30675781 -30.73273438 139.00414062 -30.15234375 139.72265625 C-23.138271 148.18225219 -13.25207243 156.776003 -2.859375 160.609375 C13.89085045 157.4136083 28.24639971 139.11703949 37.32470703 125.88330078 C53.71678451 101.38804778 61.71001894 69.94814693 61.140625 40.609375 C60.49738281 40.51438721 59.85414063 40.41939941 59.19140625 40.3215332 C38.74054271 37.24916292 19.15098199 33.28951458 1.8046875 21.36328125 C-2.78342172 18.34266389 -4.23484846 20.40212141 -8.546875 23.234375 Z " fill="#075E00" transform="translate(257.859375,10.390625)"/>
<path d="M0 0 C1.98608398 0.43603516 1.98608398 0.43603516 4.54858398 2.56103516 C6.33042004 6.12470726 6.81819932 7.50239902 5.98608398 11.43603516 C1.69185606 17.91531192 -3.76564444 23.54203661 -9.13891602 29.12353516 C-10.51816481 30.56336778 -11.89580451 32.00474374 -13.27172852 33.44775391 C-13.917146 34.12443115 -14.56256348 34.8011084 -15.22753906 35.49829102 C-16.82863753 37.23505725 -18.31950933 39.01176463 -19.79125977 40.85791016 C-22.67256241 44.20001867 -24.66171028 44.90155375 -29.01391602 45.43603516 C-34.64714401 43.33550946 -38.23576296 39.60183374 -42.32641602 35.37353516 C-42.95870117 34.73609375 -43.59098633 34.09865234 -44.24243164 33.44189453 C-49.87168614 27.71610405 -49.87168614 27.71610405 -50.32641602 23.62353516 C-49.9276999 19.55663076 -49.12807831 18.0830731 -46.01391602 15.43603516 C-42.60982477 14.75521691 -41.20831112 14.48869194 -38.01391602 15.43603516 C-35.7071972 17.09720164 -33.76232186 18.87377036 -31.77563477 20.90478516 C-30.02557061 22.76404164 -30.02557061 22.76404164 -27.01391602 22.43603516 C-25.54688606 21.14829372 -25.54688606 21.14829372 -24.13891602 19.31103516 C-23.53047852 18.59689453 -22.92204102 17.88275391 -22.29516602 17.14697266 C-21.04662095 15.66325644 -19.80028282 14.17763112 -18.56469727 12.68310547 C-16.94723299 10.74514364 -15.29569271 8.84043709 -13.63891602 6.93603516 C-13.12216309 6.30036621 -12.60541016 5.66469727 -12.07299805 5.00976562 C-8.3037364 0.74041681 -5.69255208 -0.25950707 0 0 Z " fill="#075E00" transform="translate(278.013916015625,79.56396484375)"/>
</svg>
