<?xml version="1.0" standalone="no"?>
<!DOCTYPE svg PUBLIC "-//W3C//DTD SVG 20010904//EN"
 "http://www.w3.org/TR/2001/REC-SVG-20010904/DTD/svg10.dtd">
<svg version="1.0" xmlns="http://www.w3.org/2000/svg"
 width="512.000000pt" height="512.000000pt" viewBox="0 0 512.000000 512.000000"
 preserveAspectRatio="xMidYMid meet">

<g transform="translate(0.000000,512.000000) scale(0.100000,-0.100000)"
fill="#000000" stroke="none">
<path d="M436 5104 c-103 -25 -184 -72 -266 -154 -148 -148 -201 -336 -150
-534 27 -109 63 -169 150 -257 114 -115 241 -169 398 -169 77 0 176 21 231 49
l38 20 303 -304 303 -303 -32 -40 c-125 -158 -240 -437 -267 -649 l-7 -53
-123 0 -123 0 -33 62 c-90 170 -280 268 -463 239 -253 -39 -429 -276 -387
-522 48 -280 326 -447 599 -359 99 32 208 131 262 237 l21 43 124 0 123 0 7
-52 c27 -213 142 -492 267 -650 l32 -40 -303 -303 -303 -304 -38 20 c-55 28
-154 49 -231 49 -157 0 -284 -54 -398 -169 -87 -88 -123 -148 -150 -257 -51
-198 2 -386 150 -534 148 -148 336 -201 534 -150 109 27 169 63 257 150 114
113 169 241 169 395 0 82 -15 155 -48 228 l-25 59 300 300 300 300 59 -45
c173 -130 431 -237 637 -262 l57 -7 0 -127 0 -126 -46 -19 c-73 -30 -168 -125
-211 -213 -32 -66 -37 -86 -41 -165 -10 -195 80 -353 245 -436 277 -140 602
27 654 334 33 188 -73 394 -244 477 l-57 28 0 122 0 122 98 17 c222 38 420
126 637 283 20 14 36 -1 319 -284 l299 -300 -25 -58 c-33 -73 -48 -146 -48
-228 0 -154 55 -282 169 -395 88 -87 148 -123 257 -150 199 -51 387 2 534 150
148 149 201 336 150 534 -28 109 -63 169 -151 259 -113 114 -239 167 -397 167
-77 0 -176 -21 -231 -49 l-38 -20 -302 303 -302 302 67 99 c114 170 189 354
222 547 l17 98 122 0 122 0 32 -60 c66 -124 202 -220 339 -239 303 -41 562
223 512 522 -16 94 -51 164 -119 237 -67 73 -167 126 -266 141 -185 29 -375
-69 -465 -239 l-33 -62 -122 0 -122 0 -17 98 c-33 191 -115 393 -222 547 -31
44 -59 86 -62 94 -5 8 95 115 293 313 l300 300 41 -21 c58 -30 155 -51 234
-51 157 0 284 54 398 169 87 88 123 148 150 257 51 198 -2 385 -150 534 -147
148 -335 201 -534 150 -109 -27 -169 -63 -257 -150 -114 -113 -169 -241 -169
-395 0 -82 15 -155 48 -228 l25 -58 -299 -300 c-283 -283 -299 -298 -319 -284
-217 157 -415 245 -637 283 l-98 17 0 122 0 122 57 28 c122 59 222 197 245
338 37 224 -113 451 -337 510 -236 61 -486 -84 -550 -319 -13 -47 -16 -89 -13
-154 4 -79 9 -99 41 -165 43 -88 138 -183 211 -213 l46 -19 0 -126 0 -126 -52
-7 c-216 -28 -466 -130 -642 -263 l-59 -45 -300 300 -300 300 25 59 c68 153
65 316 -9 473 -42 88 -156 208 -240 253 -114 61 -273 81 -397 51z m215 -299
c181 -62 237 -290 107 -431 -134 -145 -379 -93 -443 95 -33 99 -9 199 66 272
76 74 173 97 270 64z m1997 -12 c49 -37 67 -71 67 -128 0 -155 -205 -215 -285
-83 -44 73 -16 178 58 218 46 25 122 22 160 -7z m1991 11 c135 -40 213 -198
166 -335 -64 -188 -309 -240 -443 -95 -105 114 -93 288 25 385 71 59 156 74
252 45z m-2443 -1251 c-52 -105 -108 -253 -138 -363 l-21 -80 -230 0 c-261 0
-244 -9 -176 93 63 93 211 236 314 303 81 52 251 133 283 134 7 0 -5 -34 -32
-87z m816 42 c171 -74 375 -242 477 -392 68 -102 85 -93 -176 -93 l-230 0 -21
80 c-30 110 -86 259 -139 364 l-44 89 28 -7 c15 -4 63 -22 105 -41z m-410 -77
c61 -105 95 -180 132 -287 20 -57 36 -107 36 -112 0 -5 -92 -9 -210 -9 -118 0
-210 4 -210 9 0 20 73 218 102 275 41 84 101 186 108 186 3 0 22 -28 42 -62z
m-616 -730 c-10 -50 -15 -250 -8 -361 l7 -117 -265 2 -264 3 -8 35 c-23 102
-17 411 8 452 3 4 124 8 270 8 l264 0 -4 -22z m850 -10 c9 -42 10 -416 0 -445
l-7 -23 -269 0 -269 0 -7 23 c-9 29 -9 402 0 445 l8 32 268 0 268 0 8 -32z
m838 -13 c12 -52 12 -358 0 -410 l-10 -40 -264 -3 -265 -2 7 117 c7 111 2 311
-8 361 l-4 22 267 -2 267 -3 10 -40z m-3134 -74 c44 -32 70 -80 70 -131 0
-149 -195 -210 -282 -88 -33 47 -32 130 1 177 48 67 149 87 211 42z m4186 10
c84 -38 117 -138 72 -215 -60 -103 -198 -106 -265 -6 -54 78 -9 202 83 230 44
13 65 11 110 -9z m-2661 -811 c34 -116 108 -305 146 -368 11 -19 18 -36 16
-39 -11 -10 -193 74 -278 129 -107 69 -253 210 -318 305 -68 102 -85 94 174
91 l227 -3 33 -115z m699 68 c-45 -155 -175 -423 -204 -423 -29 0 -159 268
-204 423 l-15 52 219 0 219 0 -15 -52z m772 37 c-34 -90 -228 -294 -359 -380
-78 -51 -199 -110 -265 -130 l-23 -7 27 53 c43 86 109 257 138 359 15 52 29
101 31 108 3 9 58 12 231 12 198 0 225 -2 220 -15z m-2861 -1189 c177 -82 209
-321 58 -445 -172 -142 -433 -15 -433 210 0 44 22 110 50 150 72 100 214 137
325 85z m4008 -9 c57 -34 102 -87 122 -146 70 -207 -129 -406 -336 -336 -179
61 -237 287 -110 428 20 22 59 51 86 64 69 33 172 29 238 -10z m-2043 -209
c55 -38 75 -73 75 -133 0 -38 -6 -61 -21 -81 -52 -70 -130 -92 -201 -55 -107
54 -113 209 -11 271 46 28 115 27 158 -2z"/>
</g>
</svg>
